<?xml version="1.0" encoding="utf-8"?>
<!-- Generator: Adobe Illustrator 25.2.0, SVG Export Plug-In . SVG Version: 6.00 Build 0)  -->
<svg version="1.1" id="Calque_1" xmlns="http://www.w3.org/2000/svg" xmlns:xlink="http://www.w3.org/1999/xlink" x="0px" y="0px"
	 viewBox="0 0 595.3 841.9" style="enable-background:new 0 0 595.3 841.9;" xml:space="preserve">
<style type="text/css">
	.st0{fill:url(#SVGID_1_);}
	.st1{fill:url(#SVGID_2_);}
	.st2{font-family:'FreightSansProBold-Regular';}
	.st3{font-size:31.9783px;}
</style>
<g>
	<linearGradient id="SVGID_1_" gradientUnits="userSpaceOnUse" x1="124.1023" y1="135.695" x2="165.8176" y2="135.695">
		<stop  offset="0" style="stop-color:#E73B1A"/>
		<stop  offset="1" style="stop-color:#FAD421"/>
	</linearGradient>
	<path class="st0" d="M145,109.3c-11.5,0-20.9,9.4-20.9,20.9c0,11.4,9.2,20.7,20.6,20.9c0.1,0,0.2,0.1,0.2,0.2v10.5
		c0,0.2,0.2,0.3,0.4,0.2c2.8-2.3,20.6-17.1,20.5-31.7c0,0,0-0.1,0-0.1C165.8,118.7,156.5,109.3,145,109.3z M130.4,130.2
		c0-8,6.5-14.6,14.6-14.6c8,0,14.6,6.5,14.6,14.6c0,4-1.6,7.7-4.3,10.3c-2.6,2.6-6.3,4.3-10.3,4.3c0,0,0,0,0,0
		C136.9,144.8,130.4,138.2,130.4,130.2z"/>
	<linearGradient id="SVGID_2_" gradientUnits="userSpaceOnUse" x1="156.9598" y1="129.8688" x2="132.9594" y2="129.8688">
		<stop  offset="0" style="stop-color:#E73B1A"/>
		<stop  offset="1" style="stop-color:#FAD421"/>
	</linearGradient>
	<path class="st1" d="M145,117.9c-6.6,0-12,5.4-12,12c0,6.6,5.4,12,12,12c0,0,0,0,0,0c6.6,0,12-5.4,12-12
		C157,123.3,151.6,117.9,145,117.9z M146.6,131.5c-0.4,0.4-1,0.7-1.7,0.7c0,0,0,0,0,0c-1.3,0-2.3-1.1-2.3-2.3c0-1.3,1-2.3,2.3-2.3
		s2.3,1,2.3,2.3C147.3,130.5,147,131.1,146.6,131.5z"/>
	<text transform="matrix(1 0 0 1 181.8745 144.1133)" class="st2 st3">STEP SOUND</text>
</g>
</svg>
